<svg id="Layer_1" data-name="Layer 1" xmlns="http://www.w3.org/2000/svg" viewBox="0 0 246 286"><defs><style>.cls-1{fill:#d0021b;}</style></defs><title>Artboard 1</title><path class="cls-1" d="M66.49 199.65h4.6v13.79h-4.6zM66.49 181.26h4.6v13.79h-4.6zM66.49 162.88h4.6v13.79h-4.6zM66.49 218.03h4.6v13.79h-4.6zM146.83 229.43h13.79v4.6h-13.79zM128.44 229.43h13.79v4.6h-13.79zM66.49 144.49h4.6v13.79h-4.6zM73.29 229.43h13.79v4.6H73.29zM76.05 68.56h-9.57v16.18h4.6V73.16h4.97v-4.6zM80.64 68.56h13.79v4.6H80.64zM66.49 126.11h4.6v13.79h-4.6zM91.67 229.43h13.79v4.6H91.67zM66.49 89.34h4.6v13.79h-4.6zM66.49 107.72h4.6v13.79h-4.6zM110.06 229.43h13.79v4.6h-13.79zM175.69 105.33l1.1.92v10.67h4.6v-12.5l-2.39-2.39-3.31 3.3zM176.79 121.51h4.6v13.79h-4.6zM135.8 68.56v4.6h7.72l2.94 2.94 3.31-3.31-4.23-4.23h-9.74zM149.742 79.394l3.253-3.252 9.75 9.75-3.252 3.253zM162.75 92.217l3.253-3.253 9.75 9.75-3.252 3.254zM176.79 139.9h4.6v13.79h-4.6zM176.79 176.67h4.6v13.79h-4.6zM176.79 213.44h4.6v13.79h-4.6zM165.21 229.43H179v4.6h-13.79zM117.41 68.56h13.79v4.6h-13.79zM176.79 158.28h4.6v13.79h-4.6zM99.03 68.56h13.79v4.6H99.03zM176.79 195.05h4.6v13.79h-4.6zM159.7 105.33h10.11v4.6H159.7zM140.03 109.93h12.31v-4.6h-7.72v-7.72h-4.59v12.32zM140.02 80.15h4.6v10.11h-4.6zM117.1 118.73c4.81.65 9.63 1.4 14.46 1.88-2.36 19.39-4.42 39-5.88 58.43-2 .4-4 .79-6 1.34-.65-20.64-2-41.28-3-61.91a.65.65 0 0 0 .42.26z"/><circle class="cls-1" cx="123.12" cy="192.89" r="4.88"/></svg>