<svg id="Layer_1" xmlns="http://www.w3.org/2000/svg" viewBox="0 0 246 286"><style>.st0{fill:#F5E7E7;} .st1{fill:none;stroke:#D0021B;stroke-width:1.02;stroke-miterlimit:10;} .st2{fill:#FFFFFF;stroke:#D0021B;stroke-width:1.02;stroke-miterlimit:10;} .st3{fill:#FFFFFF;stroke:#D0021B;stroke-width:0.98;stroke-miterlimit:10;} .st4{fill:none;stroke:#D0021B;stroke-width:0.98;stroke-miterlimit:10;} .st5{fill:#F5E7E7;stroke:#D0021B;stroke-width:1.02;stroke-miterlimit:10;} .st6{fill:#FFFFFF;} .st7{fill:none;stroke:#D0021B;stroke-width:1.02;stroke-linecap:round;stroke-miterlimit:10;stroke-dasharray:4.58;} .st8{fill:none;stroke:#D0021B;stroke-width:1.02;stroke-linecap:round;stroke-miterlimit:10;} .st9{fill:#D0021B;} .st10{fill:none;stroke:#D0021B;stroke-width:0.82;stroke-miterlimit:10;} .st11{fill:none;stroke:#D0021B;stroke-width:0.93;stroke-miterlimit:10;}</style><title>Artboard 1</title><path class="st0" d="M88.2 225.9l70.9-1.1-.9 2.8c-2.3 4.1-6.9 8.6-12 8.6h-58v-10.3"/><path id="_Group_" class="st0" d="M150.1 187.1v9.9H96.5s-.3 26.7 0 34.2c-.5 5.4-9.9 9.4-12.7 0v-49.1H106v5h44.1z"/><path class="st1" d="M150.1 196.6v-9.9H106v-5H83.8v49.1c0 3.9 3.3 5.8 6.5 5.8s6.4-2 6.2-5.8c-.3-7.5 0-34.2 0-34.2h62.8s-.5 15.3 0 24.7c0 13.1-12.9 15.3-12.9 15.3H90.2"/><path class="st2" d="M152.4 98.9l1.1-8.4c.1-.8-.4-1.5-1.1-1.6h-.1L107 82.8c-3.9-.5-7.6 2.2-8.1 6.2l-7.7 57.2c-.7 5.2 2.9 10 8.1 10.7l49.1 6.6c.8.1 1.6-.5 1.7-1.3l8.1-60.4c.2-1.2-.6-2.2-1.8-2.4l-4-.5z"/><path class="st2" d="M148.6 98.6l-1.4-5.1c-.2-.8-.9-1.4-1.8-1.5l-36.6-4.5c-1.6-.2-3 .8-3.3 2.4-.2 1.3.5 2.8 2.8 3l46.8 6.4"/><path class="st1" d="M106 97.3l-7 51.5"/><path class="st3" d="M124.5 90.9l-2-8.5c-.1-.7-.8-1.2-1.5-1.1h-.1l-40.1 9.6c-3.5.8-5.5 4.7-4.6 8.7L90 157.3c1.2 5.2 6 8.6 10.6 7.5l43.5-10.4c.8-.2 1.2-1 1-1.8l-14.5-60.9c-.2-1.1-1.3-1.9-2.4-1.7l-3.7.9z"/><path class="st3" d="M121.2 91.8l-3-4.4c-.4-.7-1.2-1-2-.9l-32.3 8.1c-1.5.4-2.3 2-1.9 3.5.2 1.4 1.6 2.4 3 2.1.1 0 .3-.1.4-.1l41.5-9.8"/><path class="st4" d="M85 105.2l12.4 51.9"/><path class="st2" d="M140.6 94v-8.5c0-.8-.6-1.4-1.3-1.4H93.5c-4 0-7.2 3.2-7.2 7.1V149c0 5.2 4.3 9.5 9.5 9.5h49.6c.8 0 1.5-.7 1.5-1.5V96.1c0-1.1-.9-2.1-2-2.1h-4.3z"/><path class="st2" d="M136.8 94.1l-2.1-4.9c-.3-.8-1.1-1.3-2-1.3l-36.9.4c-1.6 0-2.9 1.3-2.9 2.9 0 1.3.9 2.7 3.2 2.6l47.3.1"/><path class="st1" d="M94.4 98.6v52"/><path class="st5" d="M109.8 107.5c-5.2 0-9.5 4.2-9.6 9.4 0 2.5 1 5 2.8 6.8l14.2 14.6c.4.5 1.2.5 1.6.1 0 0 .1 0 .1-.1 4.8-4.8 9.7-9.6 14.5-14.3 3.7-3.7 3.8-9.7.1-13.5-3.6-3.7-9.6-3.8-13.3-.2l-.1.1-1.8 1.8-1.8-1.8c-1.8-1.8-4.2-2.9-6.7-2.9z"/><path class="st6" d="M126.6 124.3c-.6.6-1.1 1.2-1.7 1.8-.2.3-.2.7.1.9.2.2.6.2.8 0 .6-.6 1.1-1.2 1.7-1.8.3-.2.3-.6.1-.9s-.6-.3-1 0c.1-.1 0 0 0 0zm-4.2-10.4c2.2-2.1 5.9-1.9 7.3 1 1.2 2.6-.4 5.3-1.8 7.5-.4.7.7 1.3 1.1.6 2-3 3.8-7.1.9-10.1-2.2-2.3-5.9-2.4-8.2-.2l-.2.2c-.6.7.3 1.6.9 1z"/><path class="st7" d="M121.6 152.1v40.8"/><path class="st8" d="M124.9 189.3l-3.2 3.8m-3.5-3.8l3.3 3.8"/><path class="st9" d="M65.6 123.6c-1.3 0-2.4-1.1-2.4-2.4s1.1-2.4 2.4-2.4c1.3 0 2.4 1.1 2.4 2.4.1 1.3-.9 2.3-2.2 2.4h-.2zm0-3.7c-.8 0-1.4.6-1.4 1.4 0 .8.6 1.4 1.4 1.4.8 0 1.4-.6 1.4-1.4 0-.8-.6-1.4-1.4-1.4zm98.8 31.3c-1.3 0-2.4-1.1-2.4-2.4s1.1-2.4 2.4-2.4 2.4 1.1 2.4 2.4c-.1 1.3-1.1 2.3-2.4 2.4"/><circle class="st9" cx="145" cy="73" r="1.4"/><path class="st9" d="M150.3 107.3h1v1.4h-1v-1.4zm0 2.5h1v1.4h-1v-1.4zm1-1.1h1.4v1h-1.4v-1zm-2.5 0h1.4v1h-1.4v-1zm34 22.7h1v1.4h-1v-1.4zm0 2.5h1v1.4h-1v-1.4zm1-1.1h1.4v1h-1.4v-1zm-2.5 0h1.4v1h-1.4v-1zM72.5 149.5h1v1.4h-1v-1.4zm0 2.5h1v1.4h-1V152zm1.1-1.1H75v1h-1.4v-1zm-2.5 0h1.4v1h-1.4v-1zm95.8-39.6h5.1v1h-5.1v-1z"/><path class="st10" d="M165.5 85.7c-.4 0-.7.1-1 .4-.5.5-.5 1.4 0 1.9l2 2.1c.1.1.2.1.2 0 .7-.7 1.4-1.4 2.1-2 .5-.5.5-1.4 0-1.9s-1.4-.5-1.9 0l-.3.3-.3-.3c-.1-.3-.5-.5-.8-.5zm-53.7-32.6c-.4 0-.7.1-1 .4-.5.5-.5 1.4 0 1.9l2 2.1c.1.1.2.1.2 0 .7-.7 1.4-1.4 2.1-2 .5-.5.5-1.4 0-1.9s-1.4-.5-1.9 0l-.3.3-.3-.3c-.1-.3-.5-.5-.8-.5z"/><path class="st11" d="M64.3 78.7c-.4 0-.8.1-1.1.4-.6.6-.6 1.6 0 2.2l2.3 2.4c.1.1.2.1.3 0 .8-.8 1.6-1.5 2.4-2.3.7-.6.7-1.5.2-2.2s-1.5-.7-2.2-.2l-.2.2-.3.3-.3-.3c-.3-.3-.7-.5-1.1-.5z"/><path class="st9" d="M82.4 59.4c-.4 0-.8.1-1.1.4-.6.6-.6 1.6 0 2.2l2.3 2.4c.1.1.2.1.3 0 .8-.8 1.6-1.5 2.4-2.3.7-.6.7-1.5.2-2.2-.6-.7-1.5-.7-2.2-.2l-.2.2-.3.3-.3-.3c-.3-.3-.7-.5-1.1-.5z"/></svg>