<svg id="Layer_1" data-name="Layer 1" xmlns="http://www.w3.org/2000/svg" viewBox="0 0 246 286"><defs><style>.cls-1,.cls-2{fill:#d0021b;}.cls-2,.cls-3,.cls-4{stroke:#d0021b;stroke-miterlimit:10;}.cls-2{stroke-width:0.75px;}.cls-3,.cls-4{fill:none;}.cls-3{stroke-width:0.82px;}.cls-4{stroke-width:0.93px;}.cls-5{fill:#f5e7e7;}</style></defs><title>Artboard 1</title><path class="cls-1" d="M49.89 102a3.76 3.76 0 0 0-.66.08 4.09 4.09 0 0 0-3.12 3.86c-.22 5.73-1 9.12-4.51 14.24a2.5 2.5 0 0 0-2.11-1.18h-9a2.51 2.51 0 0 0-2.5 2.5v18a2.51 2.51 0 0 0 2.5 2.5h9a2.5 2.5 0 0 0 2.08-1.12 13.53 13.53 0 0 0 1.5 1.09 7.06 7.06 0 0 0 3 .92c2.55.26 6.73.07 16.38.11a1 1 0 0 0 .62-.23 8.26 8.26 0 0 0 3.17-4.81 1 1 0 0 0 .48-.33 7.15 7.15 0 0 0 1.64-5.71 1 1 0 0 0 .36-.28 7 7 0 0 0 1.44-6.46 5.28 5.28 0 0 0 1.31-4c-.24-1.69-1.47-3.38-3-3.65H55.6c.77-5.06.26-9.71-1.45-12.72a5.14 5.14 0 0 0-3.61-2.81 3.55 3.55 0 0 0-.65 0zm2.53 3.75c1.46 2.57 2.07 7.39 1.08 12.55a1 1 0 0 0 1 1.19h13.68a2.37 2.37 0 0 1 1.33 1.87 3.4 3.4 0 0 1-1 2.62h-13a1 1 0 1 0 0 2h12.83a4.9 4.9 0 0 1-.92 4H55.48a1 1 0 1 0 0 2h10.86a4.9 4.9 0 0 1-.92 4h-9.94a1 1 0 1 0 0 2h8.74A5.92 5.92 0 0 1 62 141c-9.29 0-13.59.11-15.75-.11a4.73 4.73 0 0 1-2.2-.62 23.77 23.77 0 0 1-2.05-1.66V123a26.47 26.47 0 0 0 6.12-17c.67-3.06 3.37-2.22 4.31-.27zM30.5 121h9a.48.48 0 0 1 .5.5v18a.48.48 0 0 1-.5.5h-9a.48.48 0 0 1-.5-.5v-18a.48.48 0 0 1 .5-.5zM185.78 106a4 4 0 0 0-4 4v20a4 4 0 0 0 4 4h4.49l-.91 8.89a1 1 0 0 0 1.69.81l9.74-9.71h3.5v1.53a3 3 0 0 0 3 3h7.52l5.3 5.2a1 1 0 0 0 1.69-.89l-.77-4.31h.8a3 3 0 0 0 3-3V126a3 3 0 0 0-3-3h-3v-13a4 4 0 0 0-4-4zm0 2h29a2 2 0 0 1 2 2v20a2 2 0 0 1-2 2h-14.4a1 1 0 0 0-.7.28l-8 8 .75-7.21a1 1 0 0 0-1-1.09h-5.6a2 2 0 0 1-2-2V110a2 2 0 0 1 1.95-2zm3.5 4.5a1 1 0 1 0 0 2h22a1 1 0 1 0 0-2zm0 6.5a1 1 0 1 0 0 2h22a1 1 0 1 0 0-2zm29.51 6h3a1 1 0 0 1 1 1v9.57a1 1 0 0 1-1 1h-2a1 1 0 0 0-1 1.17l.42 2.42-3.36-3.31a1 1 0 0 0-.7-.28h-7.92a1 1 0 0 1-1-1V134h8.5a4 4 0 0 0 4-4zm-29.51.5a1 1 0 1 0 0 2h22a1 1 0 1 0 0-2zM30 175.37v3.93a2 2 0 0 0 1.47 1.93c5.7 1.58 19.08 6.5 24 18.75a35.65 35.65 0 0 0-15.44-6.38 41.63 41.63 0 0 0-7.1-.65h-1A2 2 0 0 0 30 195v3.57l-15.74-11.62L30 175.37m.49-2.48h-.19a1.51 1.51 0 0 0-.71.28l-17.05 12.56a1.51 1.51 0 0 0 0 2.43l17.06 12.55a1.51 1.51 0 0 0 2.4-1.21V195h1a39.35 39.35 0 0 1 6.76.63c4.95.85 11 2.8 15.87 7.07A1.51 1.51 0 0 0 58 201c-4.21-13-16.85-19.2-26-21.74v-4.89a1.51 1.51 0 0 0-1.49-1.52zM211.25 177.39a7.19 7.19 0 1 1 7.19-7.19 7.2 7.2 0 0 1-7.19 7.19zm0-12.51a5.32 5.32 0 1 0 5.32 5.32 5.32 5.32 0 0 0-5.32-5.32zM209.8 195.42h-9.17a2.9 2.9 0 0 1-2.1-.8 1.76 1.76 0 0 1-.53-1.3l.08-4.22c0-5.44 5.66-9.56 13.17-9.56s13.17 4.11 13.17 9.57v1.08a.94.94 0 0 1-.92 1 .94.94 0 0 1-.94-.92v-1.09c0-4.39-4.85-7.71-11.29-7.71S200 184.72 200 189.12v4.62c.08.08 9.92-.2 9.92-.2a.94.94 0 0 1 .92 1.1 1 1 0 0 1-1.04.78z"/><path class="cls-1" d="M224.43 194.48a.94.94 0 0 1-.94.94h-3.57V199a.94.94 0 1 1-1.88 0v-3.57h-3.57a.94.94 0 0 1 0-1.88H218V190a.94.94 0 1 1 1.88 0v3.57h3.57a.94.94 0 0 1 .98.91z"/><path class="cls-2" d="M148.33 56.93h-4.26c0-3.66-.93-5.79-5.46-5.79H102a4.17 4.17 0 0 0-4.19 4.19v29.42a4.53 4.53 0 0 0 4.52 4.52 3.24 3.24 0 0 0 .8-.07h40.52a5.37 5.37 0 0 0 5.35-5.38V57.6a.67.67 0 0 0-.67-.67zm-46 30.94a3.24 3.24 0 0 1-3.19-3.19V55.34a2.84 2.84 0 0 1 2.86-2.86h36.66c3.26 0 4.13.93 4.13 4.46H107a.63.63 0 0 0-.67.67v26.21a4 4 0 0 1-4.04 4.05zm45.38-4.06a4 4 0 0 1-4.06 4.06h-37.77a5.44 5.44 0 0 0 1.86-4.06V58.27h40v25.55z"/><path class="cls-2" d="M130.24 64.19h11.44a.67.67 0 1 0 0-1.33h-11.44a.67.67 0 1 0 0 1.33zM141.68 77h-27.55a.67.67 0 0 0 0 1.33h27.55a.63.63 0 0 0 .67-.67.67.67 0 0 0-.67-.66zM141.68 82.09h-27.55a.67.67 0 0 0 0 1.33h27.55a.63.63 0 0 0 .67-.67.67.67 0 0 0-.67-.66zM141.68 72h-11.31a.67.67 0 0 0 0 1.33h11.31a.63.63 0 0 0 .67-.67.67.67 0 0 0-.67-.66zM141.68 67.38h-11.31a.67.67 0 0 0 0 1.33h11.31a.63.63 0 0 0 .67-.67.67.67 0 0 0-.67-.66zM114.07 73.3h11.71a.63.63 0 0 0 .67-.67v-9.17a.63.63 0 0 0-.67-.67h-11.71a.63.63 0 0 0-.67.67v9.18a.67.67 0 0 0 .67.66zm.67-9.18h10.38V72h-10.39z"/><path class="cls-1" d="M34.75 54.49a2.85 2.85 0 1 1 2.85-2.85 2.85 2.85 0 0 1-2.85 2.85zm0-4.47a1.63 1.63 0 1 0 1.63 1.63A1.63 1.63 0 0 0 34.75 50zM80.75 141.49a2.85 2.85 0 1 1 2.85-2.85 2.85 2.85 0 0 1-2.85 2.85zm0-4.47a1.63 1.63 0 1 0 1.63 1.63 1.63 1.63 0 0 0-1.63-1.65zM236.75 160.49a2.85 2.85 0 1 1 2.85-2.85 2.85 2.85 0 0 1-2.85 2.85zm0-4.47a1.63 1.63 0 1 0 1.63 1.63 1.63 1.63 0 0 0-1.63-1.65zM235.05 70.75h1.22v1.69h-1.22zM235.05 73.74h1.22v1.69h-1.22zM236.31 72.48H238v1.22h-1.69zM233.32 72.48h1.69v1.22h-1.69zM164.01 110.42h1.22v1.69h-1.22zM164.01 113.41h1.22v1.69h-1.22zM165.27 112.15h1.69v1.22h-1.69zM162.28 112.15h1.69v1.22h-1.69zM6.01 131.42h1.22v1.69H6.01zM6.01 134.41h1.22v1.69H6.01zM7.27 133.15h1.69v1.22H7.27zM4.28 133.15h1.69v1.22H4.28zM44.01 167.42h1.22v1.69h-1.22zM44.01 170.41h1.22v1.69h-1.22zM45.27 169.15h1.69v1.22h-1.69zM42.28 169.15h1.69v1.22h-1.69zM179.09 182.65h6.1v1.22h-6.1z"/><path class="cls-3" d="M180.42 60.08a1.61 1.61 0 0 0-1.15.47 1.65 1.65 0 0 0 0 2.31l2.43 2.51a.21.21 0 0 0 .29 0l2.49-2.45a1.65 1.65 0 0 0 0-2.31 1.62 1.62 0 0 0-2.3 0l-.31.31-.3-.32a1.61 1.61 0 0 0-1.14-.49z"/><path class="cls-4" d="M26.49 224.64a2.2 2.2 0 0 0-1.57.64 2.24 2.24 0 0 0 0 3.15l3.31 3.42a.28.28 0 0 0 .4 0L32 228.5a2.24 2.24 0 0 0 0-3.15 2.2 2.2 0 0 0-3.13 0l-.42.42-.42-.43a2.2 2.2 0 0 0-1.56-.67zM216.49 215.64a2.2 2.2 0 0 0-1.57.64 2.24 2.24 0 0 0 0 3.15l3.31 3.42a.28.28 0 0 0 .4 0l3.37-3.35a2.24 2.24 0 0 0 0-3.15 2.2 2.2 0 0 0-3.13 0l-.42.42-.42-.43a2.2 2.2 0 0 0-1.56-.67z"/><path class="cls-1" d="M66.87 71.56a1.83 1.83 0 0 0-1.31.53 1.87 1.87 0 0 0 0 2.62l2.76 2.84a.23.23 0 0 0 .33 0l2.82-2.78a1.87 1.87 0 0 0 0-2.62 1.83 1.83 0 0 0-2.6 0l-.35.35-.35-.36a1.83 1.83 0 0 0-1.3-.56z"/><ellipse class="cls-5" cx="123" cy="242.5" rx="36.5" ry="4"/><path class="cls-1" d="M165.59 185.78a10.82 10.82 0 0 1-4.07-8.48v-17.93a36.34 36.34 0 0 0-25.84-34.57l-.5-.15.17-.49a9.84 9.84 0 0 0 .55-3.23 10.49 10.49 0 1 0-20.42 3.26l.16.49-.49.15a36.3 36.3 0 0 0-25.85 34.54v17.94a10.75 10.75 0 0 1-4.08 8.48 13.46 13.46 0 0 0-5.08 10.55v10.11h27.5v.45a17.8 17.8 0 0 0 35.42 0v-.45h27.5v-10.11a13.35 13.35 0 0 0-4.97-10.56zm-40.19-72.66a7.84 7.84 0 0 1 7.83 7.83 7.37 7.37 0 0 1-.5 2.68l-.15.39-.41-.08a35.06 35.06 0 0 0-13.53 0l-.41.08-.15-.39a7.37 7.37 0 0 1-.5-2.68 7.84 7.84 0 0 1 7.83-7.83zm-39 75.15a14.15 14.15 0 0 0 5.54-11v-17.9a33.45 33.45 0 0 1 66.9 0v17.94c0 6.22 4.58 10.2 5.5 10.93l1.11.89H85.38zm54 18.74a15.13 15.13 0 0 1-30 0l-.07-.56h30.17zm26.7-14.87a10.66 10.66 0 0 1 .87 4.22v6.95h-.48v.5H82.8v-7.45a10.66 10.66 0 0 1 .87-4.22l.13-.3H167z"/></svg>